<?xml version="1.0" ?><!DOCTYPE svg  PUBLIC '-//W3C//DTD SVG 1.1//EN'  'http://www.w3.org/Graphics/SVG/1.1/DTD/svg11.dtd'><svg enable-background="new 0 0 512 512" height="512px" id="Layer_1" version="1.1" viewBox="0 0 512 512" width="512px" xml:space="preserve" xmlns="http://www.w3.org/2000/svg" xmlns:xlink="http://www.w3.org/1999/xlink"><g><path d="M464,112h48V96H176V48c0-8.844-7.156-16-16-16s-16,7.156-16,16v48H0v16h144v64H0v16h144v23.766   c-9.438-4.813-20.281-7.766-32-7.766c-32.219,0-58.609,20.906-63.078,48H0v16h48.922c4.469,27.094,30.859,48,63.078,48   s58.609-20.906,63.078-48H256v64H0v16h256v23.766c-9.438-4.813-20.281-7.766-32-7.766c-32.219,0-58.609,20.906-63.078,48H0v16   h160.922c4.469,27.094,30.859,48,63.078,48c32.219,0,58.609-20.906,63.078-48H512v-16H288v-64h48.922   c4.469,27.094,30.859,48,63.078,48s58.609-20.906,63.078-48H512v-16h-48v-64h48v-16h-48v-64h48v-16h-48v-24.734V112z M256.563,192   c-0.155,1.281-0.563,2.484-0.563,3.797V224v32h-80v-64H256.563z M432,295.766c-9.453-4.813-20.281-7.766-32-7.766   c-32.219,0-58.609,20.906-63.078,48H288v-64h144V295.766z M432,256H290.672l138.656-64H432V256z M176,176v-64h230.016   l-131.813,56.234c-4.109,1.75-7.453,4.563-10.328,7.766H176L176,176z" fill="#4D4D4D"/></g></svg>