<?xml version="1.0" standalone="no"?>
<!DOCTYPE svg PUBLIC "-//W3C//DTD SVG 20010904//EN"
 "http://www.w3.org/TR/2001/REC-SVG-20010904/DTD/svg10.dtd">
<svg version="1.0" xmlns="http://www.w3.org/2000/svg"
 width="700.000000pt" height="700.000000pt" viewBox="0 0 700.000000 700.000000"
 preserveAspectRatio="xMidYMid meet">
<metadata>
Created by potrace 1.14, written by Peter Selinger 2001-2017
</metadata>
<g transform="translate(0.000000,700.000000) scale(0.100000,-0.100000)"
fill="#000000" stroke="none">
<path d="M2119 6550 c-58 -20 -101 -57 -128 -113 -19 -38 -20 -63 -21 -390 0
-193 -2 -353 -5 -355 -2 -2 -445 -4 -985 -5 l-980 0 0 -108 0 -109 985 0 985
0 0 -438 0 -438 -982 0 -983 0 0 -109 0 -110 980 0 980 0 3 -161 2 -162 -87
35 c-200 79 -431 89 -643 26 -143 -43 -309 -151 -409 -268 -58 -68 -133 -214
-151 -292 l-12 -53 -334 0 -334 0 0 -110 0 -109 298 0 c163 0 313 0 333 -1 35
0 36 -1 53 -62 66 -237 248 -431 496 -527 493 -191 1079 64 1197 521 17 68 18
68 53 68 56 1 970 1 1023 1 l47 -1 -2 -437 -3 -437 -1747 0 -1748 0 0 -108 c0
-96 2 -108 18 -108 9 -1 797 -1 1750 -1 l1732 0 0 -160 c0 -87 -4 -159 -9
-159 -5 0 -33 11 -64 25 -111 48 -222 70 -362 70 -115 -1 -176 -7 -258 -30
-290 -77 -521 -295 -591 -556 l-18 -66 -1042 -1 c-572 -1 -1067 -1 -1098 -2
l-58 0 0 -108 0 -108 1099 0 1100 1 16 -65 c51 -202 208 -385 420 -490 173
-85 345 -117 530 -96 273 29 513 168 649 374 44 68 91 175 103 234 3 18 10 35
14 38 4 3 696 5 1538 5 l1531 -1 0 111 0 110 -1532 0 -1531 0 1 420 c0 231 1
427 1 436 1 15 34 17 334 17 l333 1 13 -57 c30 -134 144 -308 262 -399 113
-87 273 -163 378 -179 20 -3 56 -10 81 -14 66 -13 253 -5 339 14 316 69 572
302 642 583 l13 53 333 -3 334 -2 -3 110 -3 110 -310 1 c-170 1 -317 2 -325 3
-14 1 -16 52 -16 436 l0 435 51 1 c27 0 175 0 328 0 l277 1 0 109 0 109 -328
0 -328 0 0 435 c0 385 2 435 16 436 8 1 155 2 325 3 l310 1 3 110 3 110 -326
-1 c-179 0 -326 2 -326 5 -1 3 -3 201 -3 439 l-2 432 328 0 328 0 0 109 0 109
-2252 0 c-1239 0 -2273 1 -2298 1 l-45 1 1 342 c1 378 -2 400 -58 457 -66 67
-146 89 -229 61z m3420 -1084 c-2 -2 -85 -39 -184 -81 -99 -42 -193 -83 -210
-90 -16 -8 -291 -125 -610 -260 -846 -360 -830 -353 -882 -399 l-47 -41 -598
-1 c-329 0 -598 2 -599 5 -3 20 -4 848 -1 859 3 9 326 12 1570 12 861 0 1563
-2 1561 -4z m-2039 -1095 c3 0 4 -197 2 -436 l-2 -435 -545 0 c-300 0 -545 3
-546 8 0 4 -2 199 -2 434 -2 364 0 428 12 430 14 3 1070 2 1081 -1z m2401 0
c3 -1 5 -197 5 -436 l0 -435 -960 1 -961 0 75 37 c41 20 111 53 155 74 125 56
461 211 550 253 44 20 163 75 265 122 102 47 219 101 260 120 41 19 183 85
315 145 132 61 244 114 248 118 5 4 16 7 25 5 10 -2 20 -4 23 -4z m-2 -1096
c5 -6 11 -315 5 -315 -1 0 -21 9 -45 19 -250 111 -557 108 -799 -7 -215 -102
-375 -282 -436 -492 l-22 -74 -313 -1 c-173 0 -323 1 -334 3 -20 3 -20 11 -19
435 l1 432 89 5 c128 7 1865 2 1873 -5z"/>
</g>
</svg>
